/Applications/krita.app/Contents/MacOS/ffmpeg -hide_banner -y -y -r 9 -start_number 0 -start_number_range 1 -i /Users/nikkikoole/Projects/love/vector-sketch/experiments/mipo-minipops/games/thief-vs-police/img/villgaers/frame%04d.png -f webp -lossless 0 -compression_level 4 -q:v 75 -preset default -loop 0 /Users/nikkikoole/Projects/love/vector-sketch/experiments/mipo-minipops/games/thief-vs-police/img/villgaers/fixedalittle4.webp
=====================================================
Input #0, image2, from '/Users/nikkikoole/Projects/love/vector-sketch/experiments/mipo-minipops/games/thief-vs-police/img/villgaers/frame%04d.png':
  Duration: 00:00:00.28, start: 0.000000, bitrate: N/A
  Stream #0:0: Video: png, rgba(pc), 1135x847 [SAR 2835:2835 DAR 1135:847], 25 fps, 25 tbr, 25 tbn, 25 tbc
Stream mapping:
  Stream #0:0 -> #0:0 (png (native) -> webp (libwebp_anim))
Press [q] to stop, [?] for help
Output #0, webp, to '/Users/nikkikoole/Projects/love/vector-sketch/experiments/mipo-minipops/games/thief-vs-police/img/villgaers/fixedalittle4.webp':
  Metadata:
    encoder         : Lavf58.76.100
  Stream #0:0: Video: webp, bgra(pc, gbr/unknown/unknown, progressive), 1135x847 [SAR 1:1 DAR 1135:847], q=2-31, 200 kb/s, 9 fps, 1k tbn
    Metadata:
      encoder         : Lavc58.134.100 libwebp_anim
[libwebp_anim @ 0x147809c00] Using libwebp for RGB-to-YUV conversion. You may want to consider passing in YUV instead for lossy encoding.
frame=    1 fps=0.0 q=0.0 size=       0kB time=00:00:00.00 bitrate=N/A speed=   0x    frame=    7 fps=0.0 q=-0.0 Lsize=     213kB time=00:00:00.77 bitrate=2242.3kbits/s speed=2.88x    
video:213kB audio:0kB subtitle:0kB other streams:0kB global headers:0kB muxing overhead: 0.000000%
